<svg data-name="Layer 1" xmlns="http://www.w3.org/2000/svg" viewBox="0 0 242.57 71.68"><path d="M66.16 0h-7a11.23 11.23 0 0 0-7.51 2.89l-.2.19-6.36 6.32a11.26 11.26 0 0 0-3.54 8.16v4.21a11.28 11.28 0 0 0 11.28 11.29h17.85l6.75-6.75v-7.37h-2.1l2.1-2.1v-5.57A11.29 11.29 0 0 0 66.16 0zm-23.1 21.79v-4.21a9.78 9.78 0 0 1 3.26-7.26 10 10 0 0 1 1.78-1.27 11 11 0 0 0-.23 2.22v4.21a11.21 11.21 0 0 0 1.54 5.66l-1.48 1.48.07.38a5.05 5.05 0 0 0 4.79 3.71h16.83v4.81H52.83a9.78 9.78 0 0 1-9.77-9.73zm8.27 1.8a10.9 10.9 0 0 0 2.22 1.66h-.72a3.51 3.51 0 0 1-2.92-1.66zm0-2.25l3.49-3.49a5 5 0 0 0 4.32 2.59h10.48v1.65H52q-.37-.36-.67-.75zm18.29-3.76v1.36H59.14a3.49 3.49 0 0 1-2.91-1.66H69.6c0 .1.02.2.02.3zm-14.85-1.8L50.51 20a9.72 9.72 0 0 1-1.14-4.56v-4.17a10 10 0 0 1 .47-3 9.75 9.75 0 0 1 3-.48h7a9.78 9.78 0 0 1 9.6 8zm17.41 9.47l3.75-3.75v3.75zm2.69 1.5l-3.75 3.75v-3.75zm0-6.31l-4.81 4.81H59.14a9.65 9.65 0 0 1-5.43-1.66h17l3.15-3.15zm-3.75.56v-.59h.59zm0-2.09v-1.63h3.77l-1.66 1.66zm4.81-3.16H71a11.29 11.29 0 0 0-11.16-9.44h-7a11 11 0 0 0-2.22.23 10.05 10.05 0 0 1 2-2.54 9.76 9.76 0 0 1 6.51-2.5h7a9.78 9.78 0 0 1 9.77 9.77zm166.64 34.13a11.28 11.28 0 0 0-11.27-11.27h-7a11.28 11.28 0 0 0-7.52 2.89l-.19.19-6.36 6.31a11.26 11.26 0 0 0-3.54 8.17v4.21A11.28 11.28 0 0 0 218 71.68h17.84l6.75-6.76v-7.37h-2.09l2.09-2.09zm-18.28-9.77h7a9.78 9.78 0 0 1 9.77 9.77v4.51h-5A11.27 11.27 0 0 0 225 44.93h-7a11.69 11.69 0 0 0-2.22.22 9.82 9.82 0 0 1 8.53-5zm-7.82 22.1a11.29 11.29 0 0 0 2.23 1.65h-.7a3.5 3.5 0 0 1-2.92-1.65zm0-2.26l3.53-3.49a5 5 0 0 0 4.32 2.59h10.47v1.66H217.1a8.94 8.94 0 0 1-.62-.71zm18.28-3.75v1.35h-10.46a3.47 3.47 0 0 1-2.92-1.66h13.38c0 .11.01.21.01.31zm-14.85-1.81l-4.25 4.26a9.6 9.6 0 0 1-1.14-4.56v-4.21a9.56 9.56 0 0 1 .47-3 9.7 9.7 0 0 1 3-.48h7a9.79 9.79 0 0 1 9.6 8zm-11.7 6V56.2a9.79 9.79 0 0 1 3.25-7.27 9.64 9.64 0 0 1 1.79-1.26 10.83 10.83 0 0 0-.23 2.21v4.21a11.17 11.17 0 0 0 1.53 5.66l-1.47 1.48.11.42a5.05 5.05 0 0 0 4.82 3.71h16.78v4.82H218a9.78 9.78 0 0 1-9.79-9.77zm29.11 3.45l3.75-3.75v3.75zm2.69 1.5l-3.75 3.76v-3.74zm0-6.31l-4.81 4.81h-10.9a9.78 9.78 0 0 1-5.44-1.65h17l3.15-3.14zm-3.75.6v-.6h.6zm0-2.1v-1.64H240l-1.65 1.66zM24.6 0H6.75L0 6.75v26.31h7.37l6.76-6.75V14.13h4.16a3.5 3.5 0 0 1 3.45 3.45v15.48h7.38l6.75-6.75v-15A11.29 11.29 0 0 0 24.6 0zM6.31 31.56H2.56l3.75-3.75zm1.5-4.81h3.75L7.81 30.5zm0-15.19V7.81h3.76zm4.82-2.69v3.76H8.87zm-6.32 3.76v13.06L1.5 30.5V7.81h4.81zM2.56 6.31l3.75-3.75v3.75zm10.07 18.94H7.81V14.13h4.82zm5.66-12.62h-4.16V7.81h4.16a9.79 9.79 0 0 1 9.77 9.77v8.15l-4.82 4.82v-13a5 5 0 0 0-4.95-4.92zm9.77 18.93h-3.71l3.71-3.7zm1.5-4.81h3.75l-3.75 3.75zM28.06 12a11.33 11.33 0 0 0-4.18-4.18h.72a3.51 3.51 0 0 1 3.46 3.46zm6.31 13.26h-4.81v-14a5 5 0 0 0-5-5H7.81V1.5H24.6a9.78 9.78 0 0 1 9.77 9.77zM149.28 0h-17.85l-6.75 6.75v26.31h7.38l6.75-6.75V14.13H143a3.51 3.51 0 0 1 3.46 3.45v15.48h7.37l6.75-6.75v-15A11.28 11.28 0 0 0 149.28 0zM131 31.56h-3.76l3.76-3.75zm1.5-4.81h3.75l-3.75 3.75zm0-15.18V7.81h3.75zm4.81-2.7v3.76h-3.75zM131 12.63v13.06l-4.82 4.81V7.81H131zm-3.76-6.32L131 2.56v3.75zm10.07 18.94h-4.81V14.13h4.81zM143 12.63h-4.16V7.81H143a9.78 9.78 0 0 1 9.77 9.77v8.15l-4.81 4.82v-13a5 5 0 0 0-4.96-4.92zm9.77 18.93H149l3.71-3.7zm1.5-4.81H158l-3.75 3.75zM152.74 12a11.33 11.33 0 0 0-4.18-4.18h.72a3.51 3.51 0 0 1 3.46 3.46zm6.31 13.26h-4.81v-14a5 5 0 0 0-5-5H132.5V1.5h16.78a9.78 9.78 0 0 1 9.77 9.77zm-51.32 13.32H89.89l-6.75 6.75v26.31h7.37l6.75-6.75V52.7h4.16a3.51 3.51 0 0 1 3.46 3.46v15.48h7.37l6.75-6.75v-15a11.28 11.28 0 0 0-11.27-11.31zM89.45 70.14H85.7l3.75-3.75zM91 65.33h3.7L91 69.08zm0-15.19v-3.75h3.7zm4.81-2.69v3.75H92zm-6.36 3.75v13.07l-4.81 4.81V46.39h4.81zm-3.75-6.31l3.75-3.75v3.75zm10.06 18.94H91V52.7h4.81zm5.66-12.63h-4.16v-4.81h4.16a9.78 9.78 0 0 1 9.77 9.77v8.15l-4.81 4.81v-13a5 5 0 0 0-4.96-4.92zm9.77 18.94h-3.71l3.71-3.71zm1.5-4.81h3.75l-3.75 3.75zm-1.5-14.76a11.37 11.37 0 0 0-4.19-4.18h.71a3.5 3.5 0 0 1 3.46 3.46zm6.31 13.26h-4.81v-14a5 5 0 0 0-5-5H91v-4.75h16.78a9.78 9.78 0 0 1 9.77 9.77zm-54.2-18.5v12.19h-4.16a3.51 3.51 0 0 1-3.46-3.46V38.58h-7.37l-6.75 6.75v15a11.29 11.29 0 0 0 11.27 11.31h17.85l6.75-6.75V38.58h-7.37zm7.82 20h3.75l-3.75 3.75zm0-1.5V46l4.81-4.81v22.64zm-1.5-3.75v3.75h-3.76zm-4.82 2.69V59h3.76zm6.32-18.94v-3.75h3.75zm-1.5 1.06h-3.76l3.76-3.75zm-4.82 1.5h4.82v11.13H64.8zM59.14 59h4.16v4.81h-4.16a9.78 9.78 0 0 1-9.77-9.77V46l4.81-4.81v12.87A5 5 0 0 0 59.14 59zm-9.77-18.92h3.75l-3.75 3.75zm-1.5 4.81h-3.75l3.75-3.75zm1.5 14.76a11.33 11.33 0 0 0 4.18 4.18h-.72a3.51 3.51 0 0 1-3.46-3.46zm-6.31.72v-14h4.81v14a5 5 0 0 0 5 5h16.75v4.81H52.83a9.78 9.78 0 0 1-9.77-9.81zm137.35-6.31V38.58H173l-6.75 6.75v15a11.29 11.29 0 0 0 11.27 11.27h17.88l6.75-6.75v-7.33h-18.29a3.51 3.51 0 0 1-3.45-3.46zm3.45 5h15.73l-4.81 4.81h-10.92a9.78 9.78 0 0 1-9.77-9.77V46l4.82-4.81v12.87a5 5 0 0 0 4.95 4.94zm12 6.31h3.75l-3.75 3.75zm1.06-1.5l3.75-3.75v3.75zm-22.83-23.79h3.75l-3.75 3.75zm-1.5 4.81h-3.75l3.75-3.75zm1.5 14.76a11.33 11.33 0 0 0 4.18 4.18h-.72a3.51 3.51 0 0 1-3.46-3.46zm-6.31.72v-14h4.81v14a5 5 0 0 0 5 5h16.79v4.81h-16.83a9.78 9.78 0 0 1-9.77-9.81zM134.18 42l-6.09 6.09a11.23 11.23 0 0 0-3.41 8.06v4.21A11.28 11.28 0 0 0 136 71.64h17.84l6.76-6.75V51.2h-5.26l5.21-5.2v-7.42h-18.29a11.24 11.24 0 0 0-8.08 3.42zm8.08-1.93H158l-4.81 4.81H136a11.71 11.71 0 0 0-2.23.22 10.46 10.46 0 0 1 1.51-2l.06-.06a9.74 9.74 0 0 1 6.92-2.96zm12 23.75v-5.24l4.82-4.82v10.07zM133 46.86a9.85 9.85 0 0 1 3-.47h2.8a4.94 4.94 0 0 0-1.45 3.46v1.35H136a4.94 4.94 0 0 0-3.46 1.45v-2.8a9.85 9.85 0 0 1 .46-2.99zm-.47 12.79a11.33 11.33 0 0 0 4.18 4.18H136a3.5 3.5 0 0 1-3.46-3.46zm.1-4.27A3.52 3.52 0 0 1 136 52.7h1.35v1.36a5 5 0 0 0 5 5h4.16v4.81h-4.16a9.78 9.78 0 0 1-9.76-8.49zM147.92 59h3.75l-3.75 3.75zm1.06-1.5l3.75-3.76v3.76zm3.75-6.32H138.8v-1.33a3.51 3.51 0 0 1 3.46-3.46h10.47zm-1.06 1.5l-4.81 4.82h-4.6a3.51 3.51 0 0 1-3.46-3.46V52.7zm1.06 7.38v3.75H149zm1.5-3.62V52.7H158zm0-10.07H158l-3.76 3.75zm1.11-1.5l3.71-3.71v3.71zM136 70.14a9.78 9.78 0 0 1-9.77-9.77v-4.21a9.7 9.7 0 0 1 2.89-6.92l.09-.09a10 10 0 0 1 2.05-1.53 11.71 11.71 0 0 0-.22 2.23v4.21a11.38 11.38 0 0 0 .08 1.31 5.16 5.16 0 0 0-.08.79v4.21a5 5 0 0 0 5 5h16.78v4.81zm18.28-4.81H158l-3.76 3.75zm-132.54-20v12.19h-15L0 64.27v7.37h18.29a11.24 11.24 0 0 0 7.78-3.14l.07-.07.21-.21 6-6a11.2 11.2 0 0 0 3.51-8.15V38.58H28.5zm1.5 15V59h1.36a4.94 4.94 0 0 0 3.46-1.45v2.8a9.85 9.85 0 0 1-.47 3 9.9 9.9 0 0 1-3 .47H21.8a4.93 4.93 0 0 0 1.44-3.45zm6.32-20.29h3.79l-3.79 3.79zm-1.5 4.81H24.3l3.76-3.75zm-4.82 1.5h4.82v7.67a3.51 3.51 0 0 1-3.46 3.46h-1.36zm-1.5 14a3.5 3.5 0 0 1-3.45 3.46H7.81V59h13.93zm-16.49 5L1.5 69.08v-3.75zm-2.69-1.5l3.75-3.75v3.75zm0 6.31l4.81-4.81H24.6a11.71 11.71 0 0 0 2.23-.22 10.23 10.23 0 0 1-1.53 2l-.23.22a9.7 9.7 0 0 1-6.78 2.76zm26.77-7.56a11 11 0 0 0 .23-2.23V46l4.81-4.81v12.87a9.78 9.78 0 0 1-5.04 8.54zm65.06-29.54h7a11.23 11.23 0 0 0 8.32-3.69l5.82-5.82.23-.24.08-.08a11.2 11.2 0 0 0 3.16-7.75v-4.21A11.29 11.29 0 0 0 107.72 0h-7a11.22 11.22 0 0 0-8.36 3.74l-5.82 5.77c-.08.07-.15.15-.22.22l-.13.13a11.22 11.22 0 0 0-3.07 7.71v4.21a11.28 11.28 0 0 0 11.27 11.28zM100.7 1.5h7a9.78 9.78 0 0 1 9.77 9.77v4.21a9.73 9.73 0 0 1-2.75 6.78l-.25.24a9.85 9.85 0 0 1-2 1.52 10.88 10.88 0 0 0 .22-2.23v-4.21a11.38 11.38 0 0 0-.08-1.31 4.15 4.15 0 0 0 .08-.79v-4.21a5 5 0 0 0-5-5h-13.3a11 11 0 0 0-2.23.23 9.78 9.78 0 0 1 8.54-5zM111.17 12A11.3 11.3 0 0 0 107 7.81h.72a3.51 3.51 0 0 1 3.45 3.46zm-.1 4.27a3.42 3.42 0 0 1-1 1.68l-.13.13a3.41 3.41 0 0 1-2.25.88h-1.36v-1.38a5 5 0 0 0-5-4.95h-4.09v-1.36a3.42 3.42 0 0 1 1-2.39l.05-.06a3.46 3.46 0 0 1 2.41-1h.7a9.78 9.78 0 0 1 9.67 8.44zm-3.48 4.18l-1.23 1.23v-1.24zm-10.35-6.32h4.16a3.5 3.5 0 0 1 3.46 3.45v1.36h-4.16a3.51 3.51 0 0 1-3.46-3.46zm-1.5-1.5h-1.25l1.25-1.26zM91.1 13.9l-.19.15v-2.8a9.9 9.9 0 0 1 .47-3 9.85 9.85 0 0 1 3-.47h2.79zm-.17 7.17a11.33 11.33 0 0 0 4.18 4.18h-.72a3.5 3.5 0 0 1-3.46-3.46zm.1-4.26a3.51 3.51 0 0 1 3.36-2.68h1.35v1.35a5 5 0 0 0 5 5h4.16v1.35a3.41 3.41 0 0 1-.88 2.26 3.45 3.45 0 0 1-2.56 1.18h-.7A9.77 9.77 0 0 1 91 16.81zm14 8.31l6.07-6.07a.27.27 0 0 0 .08-.07v2.8a9.55 9.55 0 0 1-.47 3 9.78 9.78 0 0 1-3 .47h-2.81zm-20.4-7.54a9.73 9.73 0 0 1 2.75-6.78l.24-.24a10.12 10.12 0 0 1 2-1.52 11.71 11.71 0 0 0-.22 2.23v4.21a11.38 11.38 0 0 0 .08 1.31 5.16 5.16 0 0 0-.08.79v4.21a5 5 0 0 0 5 5h13.33a11.61 11.61 0 0 0 2.22-.22 9.77 9.77 0 0 1-8.54 5h-7a9.78 9.78 0 0 1-9.77-9.77z" fill="#fff"/></svg>